Coordinates
version=1
nRows=29
nColumns=24
inDegrees=yes

Units are S.I. units (second, meters, Newtons, ...)
Angles are in degrees.

endheader
time	pelvis_tilt	pelvis_list	pelvis_rotation	pelvis_tx	pelvis_ty	pelvis_tz	hip_flexion_r	hip_adduction_r	hip_rotation_r	knee_angle_r	ankle_angle_r	subtalar_angle_r	mtp_angle_r	hip_flexion_l	hip_adduction_l	hip_rotation_l	knee_angle_l	ankle_angle_l	subtalar_angle_l	mtp_angle_l	lumbar_extension	lumbar_bending	lumbar_rotation
      3.21500000	    -13.28004756	     -5.07681405	    -11.43895455	     -1.96058234	     -0.06024224	      0.49103263	     -3.45261978	      8.02959613	     13.45840850	    -23.79988560	      2.66937245	     17.97480560	     10.81037154	     45.29884138	     -9.43026179	      0.46862076	    -21.08247549	     -3.55645683	     22.02951360	     19.44065128	     10.02473814	      7.70534150	     17.72634539
      3.22000000	    -13.27801756	     -4.72040071	    -11.48107778	     -1.95155470	     -0.06078584	      0.49052621	     -3.33703192	      7.42985168	     12.74545996	    -24.60859295	      1.31218069	     18.78718161	     12.16361674	     45.25061907	     -9.10938505	      0.08545300	    -21.82978848	     -4.25130193	     21.77595719	     19.80800674	     10.24998700	      7.30773983	     17.70452485
      3.22500000	    -13.29225759	     -4.34187558	    -11.51769945	     -1.94253944	     -0.06131241	      0.48998392	     -3.15263893	      6.80397108	     12.06382297	    -25.48717811	     -0.08230264	     19.68880451	     13.34940936	     45.25311400	     -8.76784017	     -0.35757463	    -22.65802255	     -4.92495472	     21.57541956	     20.02030880	     10.49960974	      6.89363567	     17.66052917
      3.23000000	    -13.33252285	     -3.93451504	    -11.54887497	     -1.93356015	     -0.06183530	      0.48941946	     -2.87215432	      6.14490244	     11.37865277	    -26.47368295	     -1.43575740	     20.74821226	     14.17719066	     45.30949709	     -8.40468958	     -0.86401571	    -23.54176054	     -5.53776131	     21.44664285	     20.08746349	     10.77586235	      6.45650101	     17.60843983
      3.23500000	    -13.33353020	     -3.47770010	    -11.49666585	     -1.92449296	     -0.06222507	      0.48871534	     -2.59766538	      5.41055289	     10.57113938	    -27.39360254	     -3.29676092	     21.47615146	     15.85069656	     45.28171167	     -7.87120787	     -1.04150871	    -24.33810899	     -6.26377936	     20.99789805	     20.15112782	     11.03833882	      5.94157647	     17.51493908
      3.24000000	    -13.37477992	     -3.01136748	    -11.47000376	     -1.91555736	     -0.06263709	      0.48804921	     -2.19715276	      4.67087789	      9.79704866	    -28.46011041	     -5.07659849	     22.35585064	     17.00221522	     45.33484842	     -7.36499248	     -1.32455362	    -25.21038869	     -6.82135416	     20.70162115	     20.06662146	     11.32203654	      5.43181390	     17.41518916
      3.24500000	    -13.42789182	     -2.53628929	    -11.44359267	     -1.90673631	     -0.06304841	      0.48734415	     -1.70159607	      3.91008659	      9.00726467	    -29.66212493	     -6.79762067	     23.36407487	     17.66746023	     45.41850693	     -6.84088930	     -1.59020660	    -26.11148901	     -7.25400398	     20.41874132	     19.91830021	     11.60104461	      4.91970821	     17.29960999
      3.25000000	    -13.41328857	     -2.03630144	    -11.32372423	     -1.89787565	     -0.06328733	      0.48657875	     -1.27690319	      3.12068839	      8.22050571	    -30.75337697	     -9.03895412	     23.89335807	     19.11267723	     45.40530054	     -6.17569508	     -1.63608059	    -26.95787131	     -7.67225444	     19.95932702	     19.65062141	     11.82174457	      4.33336703	     17.15095527
      3.25500000	    -13.44423947	     -1.53158504	    -11.21627032	     -1.88915602	     -0.06358713	      0.48580112	     -0.71516782	      2.32696253	      7.45005370	    -32.01333278	    -11.11850131	     24.55268659	     19.85861533	     45.45579747	     -5.51416792	     -1.70757309	    -27.82563984	     -7.92947298	     19.52129297	     19.34787824	     12.06860614	      3.76162849	     16.99393108
      3.26000000	    -13.48625075	     -1.01241671	    -11.10035423	     -1.88052319	     -0.06389208	      0.48500181	     -0.07703624	      1.51611375	      6.71166725	    -33.37968056	    -13.12354276	     25.21225540	     20.14855605	     45.51722736	     -4.81997776	     -1.76400345	    -28.68248200	     -8.09678546	     19.01779012	     19.05519793	     12.31701812	      3.17664809	     16.81783212
      3.26500000	    -13.48854606	     -0.47904019	    -10.96009451	     -1.87188265	     -0.06411358	      0.48420844	      0.54453891	      0.69421826	      6.02823356	    -34.74908317	    -15.27343288	     25.58461755	     20.43980540	     45.50294697	     -4.06462698	     -1.75053654	    -29.49204910	     -8.13015848	     18.41766481	     18.70624529	     12.52705419	      2.55906164	     16.62190766
      3.27000000	    -13.45679260	      0.04652260	    -10.81849722	     -1.86339399	     -0.06426861	      0.48344369	      1.18213199	     -0.11773923	      5.39650785	    -36.16705142	    -17.47034172	     25.79004333	     20.68909502	     45.44116305	     -3.30424749	     -1.73327214	    -30.27794129	     -8.06999011	     17.82216650	     18.31812395	     12.66513532	      1.93868040	     16.46209400
      3.27500000	    -13.41884364	      0.59660452	    -10.69842565	     -1.85487952	     -0.06437955	      0.48286941	      1.84521006	     -0.91100377	      4.91620815	    -37.63836633	    -19.57420607	     25.72787910	     20.49614276	     45.32457655	     -2.55530457	     -1.78318647	    -30.98935466	     -7.86501192	     17.33466703	     18.13130467	     12.81735073	      1.27644569	     16.28424436
      3.28000000	    -13.35858775	      1.12359889	    -10.58774436	     -1.84650454	     -0.06452475	      0.48221045	      2.55018155	     -1.70971534	      4.37627469	    -39.19288939	    -21.56931268	     25.55000028	     20.20763847	     45.17077744	     -1.81054452	     -1.82906559	    -31.67616225	     -7.54463294	     16.77031310	     17.98724431	     12.90897575	      0.65916606	     16.18096483
      3.28500000	    -13.26772846	      1.68311798	    -10.42244895	     -1.83811013	     -0.06456131	      0.48133087	      3.23067013	     -2.55094986	      3.92272757	    -40.69979817	    -23.59030940	     25.35177395	     20.21833866	     44.93716964	     -0.92506130	     -1.74660327	    -32.29009602	     -7.21095494	     15.84932363	     17.32093746	     12.97230748	      0.01106288	     15.99547636
      3.29000000	    -13.19068752	      2.24255080	    -10.31550328	     -1.82977616	     -0.06461487	      0.48082500	      3.97421976	     -3.32612516	      3.58571922	    -42.29112117	    -25.37082814	     24.77432028	     19.78846672	     44.67100188	     -0.16206445	     -1.85337533	    -32.81294456	     -6.71562020	     15.36038384	     17.26208137	     13.05506574	     -0.65992368	     15.84354563
      3.29500000	    -13.07671887	      2.77780606	    -10.19584549	     -1.82156152	     -0.06456006	      0.48013691	      4.70969895	     -4.07724483	      3.30238353	    -43.88362550	    -27.07454229	     24.06357359	     19.40284817	     44.33065440	      0.64938004	     -1.88288993	    -33.27441736	     -6.27419719	     14.52437950	     16.82431810	     13.06625875	     -1.28404822	     15.67087424
      3.30000000	    -12.97922027	      3.34689708	    -10.05304418	     -1.81337384	     -0.06456634	      0.47955726	      5.49714604	     -4.84936432	      3.00982976	    -45.52483075	    -28.46599306	     23.23802738	     19.01586336	     43.96578113	      1.46674902	     -1.95437817	    -33.64554956	     -5.68362996	     14.03014490	     16.71562862	     13.10631626	     -1.96756636	     15.51379793
      3.30500000	    -12.80728405	      3.86954719	     -9.89528969	     -1.80529064	     -0.06439345	      0.47881030	      6.21767266	     -5.57509889	      2.76564446	    -47.13388443	    -29.77072679	     22.27269759	     18.69827382	     43.48573640	      2.30913906	     -1.96314936	    -33.98396026	     -5.01343759	     13.35050087	     16.02870915	     13.03045751	     -2.59030347	     15.33732040
      3.31000000	    -12.71142312	      4.39632939	     -9.74957214	     -1.79733110	     -0.06430357	      0.47824239	      7.06074908	     -6.24981249	      2.58596243	    -48.79116504	    -30.72829195	     21.15952633	     18.39489898	     43.05203105	      3.07418884	     -2.08839197	    -34.20779022	     -4.40287959	     12.92966972	     15.99285740	     13.03091564	     -3.22326483	     15.12876966
      3.31500000	    -12.58226461	      4.87087713	     -9.59876444	     -1.78949387	     -0.06403832	      0.47763554	      7.88254512	     -6.84160241	      2.46537952	    -50.41265370	    -31.57202899	     19.88303903	     18.13845069	     42.53220665	      3.82789047	     -2.12057940	    -34.35406137	     -3.82428889	     12.40238655	     15.74062025	     12.96705273	     -3.80112019	     14.90479989
      3.32000000	    -12.43385700	      5.32022655	     -9.37739411	     -1.78170702	     -0.06373682	      0.47692233	      8.67568008	     -7.42073715	      2.27709938	    -52.00373196	    -32.13755950	     18.59940973	     18.11739036	     41.96852681	      4.59972367	     -2.12387125	    -34.48211421	     -3.04749009	     12.12341322	     15.27501415	     12.86409529	     -4.36765226	     14.62621071
      3.32500000	    -12.34008236	      5.77220051	     -9.18634928	     -1.77404249	     -0.06337463	      0.47629457	      9.57331673	     -7.95553616	      2.18665793	    -53.59820966	    -32.46861430	     17.31465998	     18.08887562	     41.41755392	      5.31881308	     -2.18157955	    -34.48048289	     -2.47034959	     11.86331056	     15.22898168	     12.81231430	     -4.92416295	     14.34672601
      3.33000000	    -12.23571412	      6.16768862	     -8.95037085	     -1.76647302	     -0.06292375	      0.47560888	     10.44994073	     -8.42282358	      2.06445042	    -55.14337242	    -32.55732263	     15.97705016	     18.20739493	     40.82203473	      6.01775236	     -2.16839873	    -34.43243282	     -1.86910946	     11.67149195	     15.14409484	     12.72198200	     -5.43127185	     14.01196944
      3.33500000	    -12.14210531	      6.51961837	     -8.65384556	     -1.75898692	     -0.06244728	      0.47481476	     11.32588921	     -8.85396695	      1.89807665	    -56.65110749	    -32.27777631	     14.82732895	     18.46974936	     40.21972774	      6.69279782	     -2.15503956	    -34.34837142	     -1.25834273	     11.62877207	     15.19349970	     12.61594597	     -5.89211070	     13.64047766
      3.34000000	    -12.04441584	      6.80324480	     -8.40530634	     -1.75160560	     -0.06174992	      0.47413645	     12.21579032	     -9.15653009	      1.78840976	    -58.06542523	    -32.13404593	     13.28617572	     18.80295376	     39.55905902	      7.28829334	     -2.06113803	    -34.20771523	     -0.66307262	     11.51387720	     14.95585647	     12.48903614	     -6.27828182	     13.26983868
      3.34500000	    -11.96221878	      7.04313613	     -8.09282846	     -1.74431820	     -0.06102623	      0.47337575	     13.10981345	     -9.42337221	      1.63390745	    -59.42467286	    -31.70941816	     12.00065307	     19.33359688	     38.90767315	      7.85441953	     -1.95162753	    -34.06581058	     -0.01520217	     11.62480419	     14.75770969	     12.34772970	     -6.63052466	     12.83909886
      3.35000000	    -11.88778253	      7.26680635	     -7.76634326	     -1.73703951	     -0.06021436	      0.47258968	     14.00978817	     -9.66311285	      1.51512664	    -60.73180583	    -30.94792802	     11.05598116	     19.78470399	     38.22211796	      8.39974588	     -1.83024251	    -33.83512757	      0.52951546	     11.76702237	     14.83563567	     12.21201973	     -6.95389733	     12.39301149
      3.35500000	    -11.81785499	      7.44245231	     -7.44140163	     -1.72980754	     -0.05928761	      0.47182955	     14.91705078	     -9.84147404	      1.37189222	    -61.95383802	    -30.17494512	     10.03155635	     20.25601117	     37.50918439	      8.89473804	     -1.66389275	    -33.56808445	      1.04129945	     11.90386427	     14.85050507	     12.07183490	     -7.22902309	     11.93935292
